<?xml version="1.0" standalone="no"?>
<!DOCTYPE svg PUBLIC "-//W3C//DTD SVG 20010904//EN"
 "http://www.w3.org/TR/2001/REC-SVG-20010904/DTD/svg10.dtd">
<svg version="1.0" xmlns="http://www.w3.org/2000/svg"
 width="2384.000000pt" height="2357.000000pt" viewBox="0 0 2384.000000 2357.000000"
 preserveAspectRatio="xMidYMid meet">

<g transform="translate(0.000000,2357.000000) scale(0.100000,-0.100000)"
fill="#000000" stroke="none">
<path d="M11175 22529 c-737 -52 -1638 -201 -2175 -360 -455 -135 -863 -277
-1195 -417 -110 -46 -245 -102 -300 -124 -136 -54 -715 -343 -900 -448 -82
-47 -204 -117 -270 -155 -374 -214 -815 -515 -1204 -824 -660 -525 -1424
-1293 -1858 -1870 -40 -53 -93 -121 -117 -152 -100 -127 -170 -226 -324 -455
-89 -133 -162 -245 -162 -248 0 -3 -30 -54 -66 -113 -116 -188 -235 -394 -299
-518 -182 -351 -315 -617 -328 -656 -15 -43 -35 -90 -95 -220 -145 -315 -291
-715 -454 -1239 -186 -601 -328 -1405 -383 -2167 -21 -296 -21 -1295 0 -1583
45 -608 131 -1176 265 -1740 166 -702 537 -1675 896 -2352 57 -108 104 -200
104 -204 0 -9 193 -343 265 -459 35 -55 74 -121 88 -147 34 -62 297 -454 363
-543 246 -325 482 -622 578 -725 18 -19 88 -98 156 -175 457 -516 1099 -1097
1706 -1544 175 -128 658 -449 739 -489 28 -14 77 -42 110 -62 281 -172 930
-506 1180 -608 66 -27 217 -90 335 -139 267 -111 395 -159 725 -266 481 -158
706 -217 1130 -301 446 -87 798 -137 1295 -183 166 -15 302 -18 920 -18 747 0
801 2 1225 46 610 63 1339 202 1805 344 461 140 756 243 1065 373 110 46 256
106 325 134 163 65 730 347 940 467 91 52 215 123 275 157 135 77 549 342 693
445 688 487 1314 1049 1903 1705 240 267 335 384 672 824 176 231 592 896 752
1205 192 371 300 587 321 642 13 34 53 128 89 209 62 138 118 271 187 444 33
84 179 508 239 700 94 296 145 494 219 855 94 454 168 1004 200 1483 16 247
13 1289 -5 1532 -58 770 -198 1569 -378 2155 -80 259 -244 744 -287 845 -17
41 -48 118 -69 170 -22 52 -69 162 -105 244 -37 81 -77 174 -88 205 -20 52
-153 318 -310 621 -74 143 -195 353 -277 485 -32 50 -72 117 -91 150 -66 116
-377 575 -440 647 -10 13 -68 87 -127 165 -404 531 -973 1133 -1525 1615 -192
167 -523 431 -745 594 -200 146 -595 407 -734 485 -51 28 -108 61 -128 73
-238 149 -917 497 -1171 599 -47 19 -182 75 -300 124 -267 112 -396 159 -725
266 -483 158 -680 210 -1142 301 -498 98 -917 154 -1423 191 -227 16 -1344 19
-1565 4z m-1037 -5586 c77 -221 1915 -5597 2289 -6693 267 -785 557 -1640 799
-2355 41 -121 73 -224 70 -230 -2 -6 -15 -16 -29 -24 -23 -12 -28 -11 -62 15
l-38 28 7 -159 c7 -157 7 -161 -16 -195 -32 -47 -85 -62 -153 -44 -27 8 -72
18 -100 24 -100 20 -142 40 -192 89 -27 27 -78 64 -113 83 -60 31 -72 33 -160
33 -88 0 -101 -3 -162 -33 -64 -31 -67 -35 -108 -115 -23 -45 -54 -95 -68
-110 -49 -52 -148 -67 -251 -37 -18 5 -97 10 -175 10 -174 1 -250 13 -329 49
-72 32 -122 84 -137 142 -36 134 -42 200 -50 619 -7 380 -10 433 -28 502 -37
136 -103 238 -183 278 -54 28 -265 90 -305 90 -19 0 -50 -7 -70 -15 -52 -21
-123 -25 -198 -9 -76 16 -103 12 -162 -22 -82 -46 -154 -158 -154 -238 0 -37
-5 -49 -29 -68 -24 -20 -31 -37 -50 -133 -39 -200 -86 -250 -237 -250 -71 0
-85 3 -122 27 -23 16 -48 40 -55 55 -12 23 -44 122 -51 158 -15 72 -25 107
-76 270 -42 132 -71 192 -122 250 -47 53 -105 84 -157 85 -19 0 -69 -12 -110
-27 -101 -35 -209 -35 -319 1 -118 38 -268 44 -402 16 -107 -22 -141 -36 -195
-75 -63 -45 -107 -58 -290 -84 -213 -30 -347 -35 -521 -21 -122 11 -168 11
-221 1 -134 -24 -235 -96 -290 -208 -28 -57 -28 -61 -31 -260 l-3 -203 -25 -6
c-13 -3 -24 -9 -24 -13 0 -35 -34 -236 -46 -273 -15 -46 -82 -120 -134 -148
-14 -7 -43 -30 -65 -50 -22 -21 -74 -65 -116 -98 -43 -33 -80 -66 -84 -72 -15
-25 -154 -105 -232 -135 -54 -20 -101 -46 -134 -76 -94 -80 -139 -94 -206 -62
-54 25 -84 81 -110 202 -12 58 -27 129 -33 156 -6 28 -13 66 -15 85 -6 57 -52
191 -85 247 -32 56 -91 103 -138 110 -83 11 -170 4 -252 -23 -74 -24 -93 -35
-141 -83 -75 -75 -143 -194 -180 -316 -54 -176 -96 -214 -251 -223 -108 -6
-164 8 -221 57 -23 20 -59 49 -79 64 -21 15 -50 48 -64 73 -23 40 -27 56 -26
127 0 45 9 127 20 183 20 100 123 431 146 469 7 11 25 58 40 105 47 143 297
853 312 885 12 27 98 263 244 675 97 273 340 951 415 1155 42 116 128 354 190
530 63 176 149 415 191 530 41 116 111 309 154 430 44 121 127 353 185 515 58
162 148 414 200 560 52 146 122 342 156 435 105 292 276 776 395 1120 63 182
117 337 121 345 3 8 32 89 64 180 132 377 161 457 203 559 70 168 141 314 168
343 30 31 87 61 144 77 38 10 43 16 63 67 11 31 21 65 21 77 0 11 7 29 17 39
15 17 68 18 1284 18 l1267 0 20 -57z m4799 35 c17 -16 23 -33 23 -64 0 -49 8
-54 73 -47 l46 6 3 61 3 61 2081 0 c1749 0 2084 -2 2097 -14 16 -12 17 -100
17 -1080 0 -817 -3 -1070 -12 -1079 -7 -7 -26 -12 -44 -12 l-32 0 -7 -85 c-8
-104 -27 -186 -49 -219 -26 -40 -84 -63 -200 -81 -169 -25 -375 -35 -735 -35
-420 0 -481 -7 -604 -69 -72 -36 -100 -57 -134 -99 l-43 -53 0 -2796 c0 -2588
-1 -2798 -17 -2815 -9 -10 -28 -18 -43 -18 l-27 0 -8 -101 c-8 -115 -25 -184
-56 -223 -12 -15 -65 -49 -118 -75 -84 -41 -102 -55 -151 -115 -72 -89 -95
-101 -195 -101 -195 0 -229 87 -240 620 -7 347 -21 441 -88 568 -34 65 -89
115 -163 149 -42 19 -65 23 -159 22 -171 0 -249 -39 -320 -158 l-35 -60 0
-515 c0 -465 -2 -516 -17 -533 -9 -10 -24 -18 -34 -18 -20 0 -25 -13 -34 -95
-16 -161 -39 -217 -103 -253 -92 -51 -391 -76 -575 -48 -210 33 -241 67 -272
291 -16 110 -16 243 -10 1555 4 789 8 2121 9 2960 1 1264 -1 1536 -13 1590
-20 93 -67 186 -120 240 -45 44 -132 96 -180 105 -12 2 -31 7 -41 10 -68 21
-183 27 -660 34 -563 9 -655 16 -740 60 -116 60 -130 179 -130 1121 1 657 9
872 39 1027 23 117 70 160 209 193 l52 12 0 76 c0 64 3 79 22 99 l21 23 846 0
845 0 23 -22z"/>
<path d="M8571 12398 c-21 -6 -61 -36 -101 -76 -95 -95 -120 -152 -246 -552
-101 -318 -120 -435 -93 -562 24 -112 86 -195 182 -243 50 -25 53 -25 304 -25
l254 0 58 29 c84 43 117 74 151 145 52 109 60 245 24 406 -22 97 -130 445
-169 545 -46 118 -103 211 -164 268 -77 72 -124 87 -200 65z"/>
</g>
</svg>
